<svg width="28" height="28" viewBox="0 0 28 28" fill="none" xmlns="http://www.w3.org/2000/svg">
<path d="M28 0.618461C26.9018 3.02286 25.3756 5.14604 23.7986 7.23013C21.2055 10.6585 18.4788 13.9734 15.5451 17.1083C14.3273 18.4114 12.9471 19.5178 11.5318 20.5855C11.2868 20.7704 11.1742 20.749 11.0369 20.477C10.2575 18.9419 9.10241 17.7998 7.59308 17.0205C7.31101 16.875 7.30152 16.7758 7.51473 16.474C8.42197 15.1886 9.41871 13.9784 10.5552 12.9011C14.8659 8.81947 19.4166 5.04053 24.3149 1.70969C25.1075 1.1708 25.9645 0.726911 26.8008 0.258642C27.0103 0.141785 27.2606 0.0942859 27.4957 0.0253487C27.7089 -0.036863 27.8895 0.00979574 28 0.228377V0.618461Z" fill="white"/>
<path d="M1.19491 28C1.01429 27.9706 0.669118 27.9374 0.33591 27.8537C-0.0199788 27.7646 -0.0909092 27.5431 0.112809 27.2282C0.24868 27.0194 0.395998 26.8186 0.554063 26.6267C1.4011 25.5901 1.8205 24.3758 2.03494 23.0617C2.16443 22.2698 2.28237 21.4644 2.53516 20.7078C2.94755 19.4694 3.81933 18.6775 5.10557 18.4413C5.42794 18.3812 5.75893 18.3886 6.07838 18.4631C7.97948 18.936 9.23231 20.1374 9.77006 22.0571C10.0653 23.1105 9.75151 24.0374 9.00344 24.8087C8.21372 25.6229 7.28132 26.2299 6.26726 26.7125C4.70968 27.4519 3.08323 27.9147 1.19491 28Z" fill="white"/>
</svg>
