<svg width="28" height="28" viewBox="0 0 28 28" fill="none" xmlns="http://www.w3.org/2000/svg">
<path d="M10.0119 28H9.24635C8.37498 27.8408 7.76524 27.2848 7.17442 26.6759C6.27379 25.7472 5.34304 24.8483 4.42906 23.933C3.23797 22.7401 2.04918 21.5452 0.862679 20.3483C0.142345 19.6245 -0.144239 18.7604 0.0687628 17.7539C0.210764 17.0817 0.595459 16.549 1.07568 16.0687C6.05147 11.0976 11.025 6.12427 15.9962 1.14881C16.0925 1.05199 16.1881 0.953875 16.2901 0.863076C16.8482 0.363034 17.4833 0.0278088 18.2449 0.00155875C19.1288 -0.0272732 19.8452 0.345821 20.4567 0.958609C22.4985 3.00095 24.5343 5.04974 26.5886 7.0796C27.2341 7.71605 27.8206 8.37058 28 9.2932V10.0588C27.8227 10.9827 27.2332 11.6342 26.5929 12.2728C21.8288 17.0271 17.0719 21.7878 12.3222 26.555C11.6574 27.222 10.9848 27.8438 10.0119 28ZM15.9372 19.9206L8.14907 12.1368C8.10044 12.1798 8.03375 12.2418 7.97006 12.3055C6.23506 14.0351 4.50021 15.7656 2.7655 17.497C2.02451 18.2367 2.02451 18.4045 2.75689 19.1374C4.79913 21.1797 6.84108 23.2222 8.88274 25.2648C9.58543 25.9676 9.78639 25.9689 10.4917 25.2648C12.2261 23.5332 13.9605 21.8017 15.6949 20.0703C15.7646 19.9993 15.8666 19.9628 15.9372 19.9206Z" fill="white"/>
</svg>
